<svg xmlns="http://www.w3.org/2000/svg" viewBox="0 0 1200 675" role="img" aria-labelledby="title desc">
<title id="title">Сигналы Лаки Джет</title><desc id="desc">Сигналы, боты и предикторы Lucky Jet: как отличать факты от обещаний</desc>
<defs><linearGradient id="bg" x1="0" y1="0" x2="1" y2="1"><stop stop-color="#0d0820"/><stop offset=".55" stop-color="#171036"/><stop offset="1" stop-color="#28155a"/></linearGradient><linearGradient id="accent" x1="0" y1="0" x2="1" y2="1"><stop stop-color="#6d5dfc"/><stop offset=".55" stop-color="#9c4dff"/><stop offset="1" stop-color="#cf55ff"/></linearGradient><filter id="glow"><feGaussianBlur stdDeviation="9" result="b"/><feMerge><feMergeNode in="b"/><feMergeNode in="SourceGraphic"/></feMerge></filter></defs>
<rect width="1200" height="675" rx="36" fill="url(#bg)"/><circle cx="718" cy="93" r="1" fill="#fff" opacity=".35"/><circle cx="208" cy="71" r="1" fill="#fff" opacity=".35"/><circle cx="290" cy="533" r="1" fill="#fff" opacity=".35"/><circle cx="164" cy="263" r="2" fill="#fff" opacity=".65"/><circle cx="822" cy="385" r="1" fill="#fff" opacity=".35"/><circle cx="280" cy="427" r="1" fill="#fff" opacity=".35"/><circle cx="234" cy="517" r="3" fill="#fff" opacity=".65"/><circle cx="1100" cy="419" r="3" fill="#fff" opacity=".65"/><circle cx="734" cy="249" r="1" fill="#fff" opacity=".35"/><circle cx="704" cy="587" r="3" fill="#fff" opacity=".65"/><circle cx="1106" cy="493" r="2" fill="#fff" opacity=".65"/><circle cx="372" cy="523" r="1" fill="#fff" opacity=".35"/><circle cx="230" cy="25" r="3" fill="#fff" opacity=".65"/><circle cx="648" cy="79" r="2" fill="#fff" opacity=".65"/><circle cx="154" cy="269" r="2" fill="#fff" opacity=".65"/><circle cx="380" cy="71" r="3" fill="#fff" opacity=".65"/><circle cx="846" cy="529" r="2" fill="#fff" opacity=".65"/><circle cx="784" cy="487" r="3" fill="#fff" opacity=".65"/><circle cx="802" cy="213" r="1" fill="#fff" opacity=".35"/><circle cx="708" cy="43" r="3" fill="#fff" opacity=".65"/><circle cx="1142" cy="581" r="1" fill="#fff" opacity=".35"/><circle cx="760" cy="211" r="3" fill="#fff" opacity=".65"/><circle cx="458" cy="545" r="2" fill="#fff" opacity=".65"/><circle cx="44" cy="511" r="1" fill="#fff" opacity=".35"/><circle cx="190" cy="277" r="1" fill="#fff" opacity=".35"/><circle cx="1120" cy="119" r="2" fill="#fff" opacity=".65"/>
<circle cx="1000" cy="90" r="180" fill="#9c4dff" opacity=".08"/><circle cx="1040" cy="580" r="220" fill="#6d5dfc" opacity=".07"/>
<g filter="url(#glow)"><rect x="735" y="175" width="330" height="300" rx="30" fill="#171036" stroke="#8b7cff" stroke-width="5"/><path d="M790 390v-70M850 390V270M910 390V225M970 390V305" stroke="url(#accent)" stroke-width="24" stroke-linecap="round"/><path d="M770 205 Q900 125 1030 205" fill="none" stroke="#f4a640" stroke-width="10"/><circle cx="900" cy="175" r="16" fill="#f4a640"/></g>
<text x="70" y="190" fill="#b9adff" font-size="28" font-family="Arial,sans-serif" font-weight="700" letter-spacing="2">LUCKY JET · SEO GUIDE</text>
<text x="70" y="270" fill="#fff" font-size="58" font-family="Arial,sans-serif" font-weight="800">Сигналы Лаки Джет</text>
<foreignObject x="70" y="315" width="560" height="190"><div xmlns="http://www.w3.org/1999/xhtml" style="font-family:Arial,sans-serif;font-size:28px;line-height:1.35;color:#d7d2f5">Сигналы, боты и предикторы Lucky Jet: как отличать факты от обещаний</div></foreignObject>
<rect x="70" y="550" width="250" height="62" rx="20" fill="url(#accent)"/><text x="110" y="591" fill="#fff" font-size="26" font-family="Arial,sans-serif" font-weight="800">LUCKY JET 2026</text>
</svg>