<svg xmlns="http://www.w3.org/2000/svg" viewBox="0 0 1200 675" role="img" aria-labelledby="title desc">
<title id="title">Множитель Lucky Jet</title><desc id="desc">Коэффициент и кэшаут в Лаки Джет: как читать рост множителя</desc>
<defs><linearGradient id="bg" x1="0" y1="0" x2="1" y2="1"><stop stop-color="#0d0820"/><stop offset=".55" stop-color="#171036"/><stop offset="1" stop-color="#28155a"/></linearGradient><linearGradient id="accent" x1="0" y1="0" x2="1" y2="1"><stop stop-color="#6d5dfc"/><stop offset=".55" stop-color="#9c4dff"/><stop offset="1" stop-color="#cf55ff"/></linearGradient><filter id="glow"><feGaussianBlur stdDeviation="9" result="b"/><feMerge><feMergeNode in="b"/><feMergeNode in="SourceGraphic"/></feMerge></filter></defs>
<rect width="1200" height="675" rx="36" fill="url(#bg)"/><circle cx="668" cy="395" r="3" fill="#fff" opacity=".65"/><circle cx="1102" cy="453" r="2" fill="#fff" opacity=".65"/><circle cx="272" cy="415" r="3" fill="#fff" opacity=".65"/><circle cx="290" cy="501" r="1" fill="#fff" opacity=".35"/><circle cx="516" cy="267" r="1" fill="#fff" opacity=".35"/><circle cx="758" cy="113" r="1" fill="#fff" opacity=".35"/><circle cx="312" cy="235" r="3" fill="#fff" opacity=".65"/><circle cx="842" cy="477" r="1" fill="#fff" opacity=".35"/><circle cx="300" cy="487" r="2" fill="#fff" opacity=".65"/><circle cx="574" cy="589" r="3" fill="#fff" opacity=".65"/><circle cx="1024" cy="399" r="1" fill="#fff" opacity=".35"/><circle cx="242" cy="221" r="1" fill="#fff" opacity=".35"/><circle cx="820" cy="163" r="1" fill="#fff" opacity=".35"/><circle cx="966" cy="425" r="3" fill="#fff" opacity=".65"/><circle cx="1032" cy="407" r="3" fill="#fff" opacity=".65"/><circle cx="154" cy="433" r="3" fill="#fff" opacity=".65"/><circle cx="540" cy="491" r="2" fill="#fff" opacity=".65"/><circle cx="590" cy="329" r="2" fill="#fff" opacity=".65"/><circle cx="752" cy="527" r="2" fill="#fff" opacity=".65"/><circle cx="226" cy="341" r="3" fill="#fff" opacity=".65"/><circle cx="388" cy="271" r="3" fill="#fff" opacity=".65"/><circle cx="182" cy="221" r="2" fill="#fff" opacity=".65"/><circle cx="696" cy="555" r="2" fill="#fff" opacity=".65"/><circle cx="618" cy="381" r="3" fill="#fff" opacity=".65"/><circle cx="204" cy="367" r="3" fill="#fff" opacity=".65"/><circle cx="446" cy="77" r="2" fill="#fff" opacity=".65"/>
<circle cx="1000" cy="90" r="180" fill="#9c4dff" opacity=".08"/><circle cx="1040" cy="580" r="220" fill="#6d5dfc" opacity=".07"/>
<g filter="url(#glow)"><circle cx="895" cy="320" r="165" fill="#171036" stroke="#8b7cff" stroke-width="7"/><text x="790" y="350" fill="#fff" font-size="88" font-family="Arial" font-weight="900">x4.72</text><path d="M755 450 Q840 410 890 300 T1040 180" fill="none" stroke="#f4a640" stroke-width="14" stroke-linecap="round"/></g>
<text x="70" y="190" fill="#b9adff" font-size="28" font-family="Arial,sans-serif" font-weight="700" letter-spacing="2">LUCKY JET · SEO GUIDE</text>
<text x="70" y="270" fill="#fff" font-size="58" font-family="Arial,sans-serif" font-weight="800">Множитель Lucky Jet</text>
<foreignObject x="70" y="315" width="560" height="190"><div xmlns="http://www.w3.org/1999/xhtml" style="font-family:Arial,sans-serif;font-size:28px;line-height:1.35;color:#d7d2f5">Коэффициент и кэшаут в Лаки Джет: как читать рост множителя</div></foreignObject>
<rect x="70" y="550" width="250" height="62" rx="20" fill="url(#accent)"/><text x="110" y="591" fill="#fff" font-size="26" font-family="Arial,sans-serif" font-weight="800">LUCKY JET 2026</text>
</svg>